# xmcd
#
# Track frame offsets:
#	150
#	14924
#	27349
#	39298
#	53137
#	56959
#	73739
#	97337
#	116320
#	133385
#	154724
#	161547
#
# Disc length: 2370 seconds
#
# Revision: 1
# Processed by: cddbd v1.5.2PL0 Copyright (c) Steve Scherf et al.
# Submitted via: audiograbber 1.83.01
#
DISCID=ad09400c
DTITLE=Danny Diablo Vs. The Vendetta - When Worlds Collide
DYEAR=2008
DGENRE=Hip-Hop
TTITLE0=We'll Never Fall
TTITLE1=Never Satisfied
TTITLE2=Looking Down The Barrel Of A Gun
TTITLE3=NWO
TTITLE4=Skit Puerto Rican Myke
TTITLE5=2 In Your Fitted 
TTITLE6=Mechanix
TTITLE7=Snow White 
TTITLE8=Storm Clouds
TTITLE9=Ready 4 War 
TTITLE10=Skit Lord Ezec
TTITLE11=Never Satisfied
EXTD=
EXTT0=
EXTT1=
EXTT2=
EXTT3=
EXTT4=
EXTT5=
EXTT6=
EXTT7=
EXTT8=
EXTT9=
EXTT10=
EXTT11=
PLAYORDER=
